<svg xmlns="http://www.w3.org/2000/svg" xmlns:xlink="http://www.w3.org/1999/xlink" width="175" zoomAndPan="magnify" viewBox="0 0 131.25 60" height="80" preserveAspectRatio="xMidYMid meet" version="1.0"><defs><g/><clipPath id="ff67860812"><path d="M 0 0.171875 L 130.503906 0.171875 L 130.503906 59.828125 L 0 59.828125 Z M 0 0.171875 " clip-rule="nonzero"/></clipPath></defs><g clip-path="url(#ff67860812)"><path fill="#ffffff" d="M 0 0.171875 L 130.503906 0.171875 L 130.503906 59.828125 L 0 59.828125 Z M 0 0.171875 " fill-opacity="1" fill-rule="nonzero"/><path fill="#fefefe" d="M 0 0.171875 L 130.503906 0.171875 L 130.503906 59.828125 L 0 59.828125 Z M 0 0.171875 " fill-opacity="1" fill-rule="nonzero"/></g><g fill="#000000" fill-opacity="1"><g transform="translate(-0.000000000000010598, 31.841082)"><g><path d="M 5.859375 -17.359375 L 9.421875 -5.125 L 9.5625 -5.125 L 13.109375 -17.359375 L 18.4375 -17.359375 L 12.703125 0 L 6.265625 0 L 0.546875 -17.359375 Z M 5.859375 -17.359375 "/></g></g></g><g fill="#000000" fill-opacity="1"><g transform="translate(19.268981, 31.841082)"><g><path d="M 1.1875 0 L 1.1875 -13.015625 L 5.859375 -13.015625 L 5.859375 0 Z M 3.53125 -14.375 C 2.894531 -14.375 2.347656 -14.582031 1.890625 -15 C 1.441406 -15.414062 1.21875 -15.914062 1.21875 -16.5 C 1.21875 -17.09375 1.441406 -17.597656 1.890625 -18.015625 C 2.347656 -18.429688 2.894531 -18.640625 3.53125 -18.640625 C 4.164062 -18.640625 4.707031 -18.429688 5.15625 -18.015625 C 5.601562 -17.597656 5.828125 -17.09375 5.828125 -16.5 C 5.828125 -15.914062 5.601562 -15.414062 5.15625 -15 C 4.707031 -14.582031 4.164062 -14.375 3.53125 -14.375 Z M 3.53125 -14.375 "/></g></g></g><g fill="#000000" fill-opacity="1"><g transform="translate(26.606032, 31.841082)"><g><path d="M 7.421875 0.234375 C 6.035156 0.234375 4.835938 -0.03125 3.828125 -0.5625 C 2.828125 -1.09375 2.054688 -1.859375 1.515625 -2.859375 C 0.984375 -3.867188 0.71875 -5.070312 0.71875 -6.46875 C 0.71875 -7.8125 0.988281 -8.984375 1.53125 -9.984375 C 2.070312 -10.992188 2.832031 -11.78125 3.8125 -12.34375 C 4.800781 -12.90625 5.972656 -13.1875 7.328125 -13.1875 C 8.304688 -13.1875 9.191406 -13.03125 9.984375 -12.71875 C 10.785156 -12.414062 11.46875 -11.972656 12.03125 -11.390625 C 12.59375 -10.816406 13.023438 -10.117188 13.328125 -9.296875 C 13.640625 -8.472656 13.796875 -7.539062 13.796875 -6.5 L 13.796875 -5.421875 L 2.171875 -5.421875 L 2.171875 -8 L 9.484375 -8 C 9.484375 -8.375 9.390625 -8.703125 9.203125 -8.984375 C 9.023438 -9.265625 8.78125 -9.484375 8.46875 -9.640625 C 8.15625 -9.804688 7.804688 -9.890625 7.421875 -9.890625 C 7.046875 -9.890625 6.695312 -9.804688 6.375 -9.640625 C 6.0625 -9.484375 5.8125 -9.265625 5.625 -8.984375 C 5.4375 -8.703125 5.335938 -8.375 5.328125 -8 L 5.328125 -5.21875 C 5.328125 -4.800781 5.410156 -4.425781 5.578125 -4.09375 C 5.753906 -3.769531 6.003906 -3.515625 6.328125 -3.328125 C 6.660156 -3.140625 7.0625 -3.046875 7.53125 -3.046875 C 7.84375 -3.046875 8.132812 -3.09375 8.40625 -3.1875 C 8.675781 -3.28125 8.90625 -3.410156 9.09375 -3.578125 C 9.289062 -3.753906 9.429688 -3.960938 9.515625 -4.203125 L 13.796875 -4.203125 C 13.648438 -3.296875 13.300781 -2.507812 12.75 -1.84375 C 12.195312 -1.1875 11.472656 -0.675781 10.578125 -0.3125 C 9.679688 0.0507812 8.628906 0.234375 7.421875 0.234375 Z M 7.421875 0.234375 "/></g></g></g><g fill="#000000" fill-opacity="1"><g transform="translate(41.400535, 31.841082)"><g><path d="M 8.953125 -13.015625 L 8.953125 -9.625 L 0.375 -9.625 L 0.375 -13.015625 Z M 2.03125 -16.125 L 6.703125 -16.125 L 6.703125 -4.1875 C 6.703125 -4.007812 6.734375 -3.859375 6.796875 -3.734375 C 6.859375 -3.609375 6.953125 -3.515625 7.078125 -3.453125 C 7.210938 -3.398438 7.382812 -3.375 7.59375 -3.375 C 7.726562 -3.375 7.890625 -3.390625 8.078125 -3.421875 C 8.273438 -3.453125 8.414062 -3.476562 8.5 -3.5 L 9.1875 -0.21875 C 8.976562 -0.15625 8.675781 -0.0820312 8.28125 0 C 7.894531 0.09375 7.4375 0.15625 6.90625 0.1875 C 5.832031 0.238281 4.929688 0.128906 4.203125 -0.140625 C 3.484375 -0.421875 2.9375 -0.863281 2.5625 -1.46875 C 2.195312 -2.070312 2.019531 -2.832031 2.03125 -3.75 Z M 2.03125 -16.125 "/></g></g></g><g fill="#000000" fill-opacity="1"><g transform="translate(51.347694, 31.841082)"><g><path d="M 17.3125 -10.84375 L 12.546875 -10.84375 C 12.503906 -11.238281 12.410156 -11.597656 12.265625 -11.921875 C 12.128906 -12.242188 11.929688 -12.519531 11.671875 -12.75 C 11.421875 -12.988281 11.117188 -13.171875 10.765625 -13.296875 C 10.410156 -13.421875 10.007812 -13.484375 9.5625 -13.484375 C 8.769531 -13.484375 8.097656 -13.289062 7.546875 -12.90625 C 7.003906 -12.53125 6.59375 -11.984375 6.3125 -11.265625 C 6.03125 -10.546875 5.890625 -9.679688 5.890625 -8.671875 C 5.890625 -7.609375 6.03125 -6.71875 6.3125 -6 C 6.601562 -5.289062 7.019531 -4.753906 7.5625 -4.390625 C 8.101562 -4.035156 8.753906 -3.859375 9.515625 -3.859375 C 9.953125 -3.859375 10.34375 -3.910156 10.6875 -4.015625 C 11.03125 -4.128906 11.328125 -4.289062 11.578125 -4.5 C 11.835938 -4.71875 12.046875 -4.972656 12.203125 -5.265625 C 12.367188 -5.554688 12.484375 -5.890625 12.546875 -6.265625 L 17.3125 -6.234375 C 17.257812 -5.503906 17.054688 -4.757812 16.703125 -4 C 16.347656 -3.238281 15.84375 -2.535156 15.1875 -1.890625 C 14.53125 -1.253906 13.722656 -0.738281 12.765625 -0.34375 C 11.804688 0.0390625 10.691406 0.234375 9.421875 0.234375 C 7.828125 0.234375 6.398438 -0.101562 5.140625 -0.78125 C 3.878906 -1.46875 2.878906 -2.472656 2.140625 -3.796875 C 1.410156 -5.128906 1.046875 -6.753906 1.046875 -8.671875 C 1.046875 -10.609375 1.414062 -12.238281 2.15625 -13.5625 C 2.90625 -14.882812 3.910156 -15.882812 5.171875 -16.5625 C 6.441406 -17.25 7.859375 -17.59375 9.421875 -17.59375 C 10.515625 -17.59375 11.519531 -17.441406 12.4375 -17.140625 C 13.363281 -16.835938 14.171875 -16.398438 14.859375 -15.828125 C 15.554688 -15.253906 16.117188 -14.550781 16.546875 -13.71875 C 16.972656 -12.882812 17.226562 -11.925781 17.3125 -10.84375 Z M 17.3125 -10.84375 "/></g></g></g><g fill="#000000" fill-opacity="1"><g transform="translate(69.972621, 31.841082)"><g><path d="M 10.46875 -11.921875 C 10.425781 -12.492188 10.21875 -12.9375 9.84375 -13.25 C 9.46875 -13.5625 8.898438 -13.71875 8.140625 -13.71875 C 7.648438 -13.71875 7.25 -13.660156 6.9375 -13.546875 C 6.632812 -13.429688 6.410156 -13.273438 6.265625 -13.078125 C 6.117188 -12.878906 6.039062 -12.65625 6.03125 -12.40625 C 6.019531 -12.195312 6.054688 -12.007812 6.140625 -11.84375 C 6.234375 -11.675781 6.375 -11.523438 6.5625 -11.390625 C 6.757812 -11.253906 7.003906 -11.132812 7.296875 -11.03125 C 7.597656 -10.925781 7.957031 -10.832031 8.375 -10.75 L 9.796875 -10.4375 C 10.753906 -10.238281 11.570312 -9.972656 12.25 -9.640625 C 12.9375 -9.304688 13.5 -8.910156 13.9375 -8.453125 C 14.375 -8.003906 14.691406 -7.5 14.890625 -6.9375 C 15.097656 -6.382812 15.207031 -5.78125 15.21875 -5.125 C 15.207031 -3.976562 14.921875 -3.007812 14.359375 -2.21875 C 13.796875 -1.425781 12.988281 -0.820312 11.9375 -0.40625 C 10.894531 0 9.640625 0.203125 8.171875 0.203125 C 6.660156 0.203125 5.34375 -0.0195312 4.21875 -0.46875 C 3.101562 -0.914062 2.234375 -1.601562 1.609375 -2.53125 C 0.992188 -3.457031 0.679688 -4.644531 0.671875 -6.09375 L 5.15625 -6.09375 C 5.175781 -5.5625 5.304688 -5.113281 5.546875 -4.75 C 5.785156 -4.394531 6.117188 -4.125 6.546875 -3.9375 C 6.984375 -3.75 7.5 -3.65625 8.09375 -3.65625 C 8.601562 -3.65625 9.023438 -3.71875 9.359375 -3.84375 C 9.703125 -3.96875 9.957031 -4.140625 10.125 -4.359375 C 10.300781 -4.578125 10.394531 -4.832031 10.40625 -5.125 C 10.394531 -5.382812 10.304688 -5.613281 10.140625 -5.8125 C 9.972656 -6.019531 9.703125 -6.203125 9.328125 -6.359375 C 8.953125 -6.515625 8.441406 -6.664062 7.796875 -6.8125 L 6.0625 -7.1875 C 4.53125 -7.519531 3.320312 -8.078125 2.4375 -8.859375 C 1.550781 -9.640625 1.113281 -10.707031 1.125 -12.0625 C 1.113281 -13.164062 1.40625 -14.128906 2 -14.953125 C 2.59375 -15.785156 3.421875 -16.429688 4.484375 -16.890625 C 5.546875 -17.359375 6.765625 -17.59375 8.140625 -17.59375 C 9.535156 -17.59375 10.742188 -17.359375 11.765625 -16.890625 C 12.785156 -16.421875 13.570312 -15.757812 14.125 -14.90625 C 14.6875 -14.050781 14.972656 -13.054688 14.984375 -11.921875 Z M 10.46875 -11.921875 "/></g></g></g><g fill="#000000" fill-opacity="1"><g transform="translate(86.156933, 31.841082)"><g><path d="M 1.125 0 L 1.125 -17.359375 L 5.828125 -17.359375 L 5.828125 -3.796875 L 12.84375 -3.796875 L 12.84375 0 Z M 1.125 0 "/></g></g></g><g fill="#000000" fill-opacity="1"><g transform="translate(100.070101, 31.841082)"><g><path d="M 4.8125 0.203125 C 3.976562 0.203125 3.242188 0.0664062 2.609375 -0.203125 C 1.972656 -0.484375 1.472656 -0.898438 1.109375 -1.453125 C 0.753906 -2.015625 0.578125 -2.726562 0.578125 -3.59375 C 0.578125 -4.300781 0.695312 -4.90625 0.9375 -5.40625 C 1.1875 -5.914062 1.523438 -6.332031 1.953125 -6.65625 C 2.390625 -6.976562 2.894531 -7.222656 3.46875 -7.390625 C 4.050781 -7.566406 4.679688 -7.679688 5.359375 -7.734375 C 6.085938 -7.785156 6.671875 -7.851562 7.109375 -7.9375 C 7.554688 -8.019531 7.878906 -8.132812 8.078125 -8.28125 C 8.273438 -8.425781 8.375 -8.625 8.375 -8.875 L 8.375 -8.90625 C 8.375 -9.25 8.242188 -9.507812 7.984375 -9.6875 C 7.722656 -9.875 7.390625 -9.96875 6.984375 -9.96875 C 6.535156 -9.96875 6.171875 -9.867188 5.890625 -9.671875 C 5.609375 -9.472656 5.441406 -9.175781 5.390625 -8.78125 L 1.078125 -8.78125 C 1.140625 -9.570312 1.394531 -10.300781 1.84375 -10.96875 C 2.289062 -11.632812 2.945312 -12.171875 3.8125 -12.578125 C 4.675781 -12.984375 5.753906 -13.1875 7.046875 -13.1875 C 7.984375 -13.1875 8.820312 -13.078125 9.5625 -12.859375 C 10.300781 -12.640625 10.925781 -12.335938 11.4375 -11.953125 C 11.957031 -11.566406 12.351562 -11.113281 12.625 -10.59375 C 12.90625 -10.070312 13.046875 -9.507812 13.046875 -8.90625 L 13.046875 0 L 8.671875 0 L 8.671875 -1.828125 L 8.578125 -1.828125 C 8.316406 -1.335938 8 -0.941406 7.625 -0.640625 C 7.257812 -0.347656 6.835938 -0.132812 6.359375 0 C 5.890625 0.132812 5.375 0.203125 4.8125 0.203125 Z M 6.34375 -2.75 C 6.695312 -2.75 7.03125 -2.820312 7.34375 -2.96875 C 7.65625 -3.113281 7.910156 -3.320312 8.109375 -3.59375 C 8.304688 -3.875 8.40625 -4.210938 8.40625 -4.609375 L 8.40625 -5.6875 C 8.28125 -5.644531 8.144531 -5.597656 8 -5.546875 C 7.863281 -5.503906 7.71875 -5.460938 7.5625 -5.421875 C 7.414062 -5.378906 7.253906 -5.34375 7.078125 -5.3125 C 6.910156 -5.28125 6.734375 -5.25 6.546875 -5.21875 C 6.179688 -5.164062 5.882812 -5.070312 5.65625 -4.9375 C 5.425781 -4.8125 5.253906 -4.65625 5.140625 -4.46875 C 5.035156 -4.289062 4.984375 -4.085938 4.984375 -3.859375 C 4.984375 -3.503906 5.109375 -3.226562 5.359375 -3.03125 C 5.617188 -2.84375 5.945312 -2.75 6.34375 -2.75 Z M 6.34375 -2.75 "/></g></g></g><g fill="#000000" fill-opacity="1"><g transform="translate(114.457839, 31.841082)"><g><path d="M 1.125 0 L 1.125 -17.359375 L 5.796875 -17.359375 L 5.796875 -10.75 L 5.859375 -10.75 C 6.035156 -11.1875 6.285156 -11.585938 6.609375 -11.953125 C 6.929688 -12.328125 7.335938 -12.625 7.828125 -12.84375 C 8.316406 -13.070312 8.878906 -13.1875 9.515625 -13.1875 C 10.378906 -13.1875 11.195312 -12.957031 11.96875 -12.5 C 12.75 -12.039062 13.382812 -11.316406 13.875 -10.328125 C 14.363281 -9.347656 14.609375 -8.070312 14.609375 -6.5 C 14.609375 -5 14.375 -3.753906 13.90625 -2.765625 C 13.4375 -1.773438 12.8125 -1.035156 12.03125 -0.546875 C 11.257812 -0.0664062 10.410156 0.171875 9.484375 0.171875 C 8.878906 0.171875 8.335938 0.0703125 7.859375 -0.125 C 7.378906 -0.332031 6.972656 -0.609375 6.640625 -0.953125 C 6.304688 -1.296875 6.046875 -1.691406 5.859375 -2.140625 L 5.765625 -2.140625 L 5.765625 0 Z M 5.6875 -6.5 C 5.6875 -5.875 5.769531 -5.328125 5.9375 -4.859375 C 6.101562 -4.398438 6.335938 -4.046875 6.640625 -3.796875 C 6.953125 -3.546875 7.328125 -3.421875 7.765625 -3.421875 C 8.191406 -3.421875 8.554688 -3.539062 8.859375 -3.78125 C 9.160156 -4.03125 9.390625 -4.382812 9.546875 -4.84375 C 9.710938 -5.3125 9.796875 -5.863281 9.796875 -6.5 C 9.796875 -7.144531 9.710938 -7.695312 9.546875 -8.15625 C 9.390625 -8.625 9.160156 -8.976562 8.859375 -9.21875 C 8.554688 -9.46875 8.191406 -9.59375 7.765625 -9.59375 C 7.328125 -9.59375 6.953125 -9.46875 6.640625 -9.21875 C 6.335938 -8.976562 6.101562 -8.625 5.9375 -8.15625 C 5.769531 -7.695312 5.6875 -7.144531 5.6875 -6.5 Z M 5.6875 -6.5 "/></g></g></g><g fill="#545454" fill-opacity="1"><g transform="translate(-0.000000000000010598, 46.418752)"><g><path d="M 0.5625 -4.1875 L 1.875 -0.5 L 1.90625 -0.5 L 3.21875 -4.1875 L 3.609375 -4.1875 L 2.09375 0 L 1.6875 0 L 0.15625 -4.1875 Z M 0.5625 -4.1875 "/></g></g></g><g fill="#545454" fill-opacity="1"><g transform="translate(4.059875, 46.418752)"><g><path d="M 0.9375 -4.1875 L 0.9375 0 L 0.5625 0 L 0.5625 -4.1875 Z M 0.9375 -4.1875 "/></g></g></g><g fill="#545454" fill-opacity="1"><g transform="translate(5.839543, 46.418752)"><g><path d="M 0.5625 0 L 0.5625 -4.1875 L 2.984375 -4.1875 L 2.984375 -3.84375 L 0.9375 -3.84375 L 0.9375 -2.265625 L 2.859375 -2.265625 L 2.859375 -1.921875 L 0.9375 -1.921875 L 0.9375 -0.34375 L 3.015625 -0.34375 L 3.015625 0 Z M 0.5625 0 "/></g></g></g><g fill="#545454" fill-opacity="1"><g transform="translate(9.538097, 46.418752)"><g><path d="M 0.296875 -3.84375 L 0.296875 -4.1875 L 3.328125 -4.1875 L 3.328125 -3.84375 L 2.015625 -3.84375 L 2.015625 0 L 1.625 0 L 1.625 -3.84375 Z M 0.296875 -3.84375 "/></g></g></g><g fill="#545454" fill-opacity="1"><g transform="translate(13.461199, 46.418752)"><g><path d="M 3.8125 -4.1875 L 3.8125 0 L 3.4375 0 L 0.96875 -3.5 L 0.9375 -3.5 L 0.9375 0 L 0.5625 0 L 0.5625 -4.1875 L 0.921875 -4.1875 L 3.40625 -0.671875 L 3.4375 -0.671875 L 3.4375 -4.1875 Z M 3.8125 -4.1875 "/></g></g></g><g fill="#545454" fill-opacity="1"><g transform="translate(18.115109, 46.418752)"><g><path d="M 0.5625 0 L 0.15625 0 L 1.6875 -4.1875 L 2.09375 -4.1875 L 3.609375 0 L 3.21875 0 L 1.90625 -3.6875 L 1.875 -3.6875 Z M 0.84375 -1.609375 L 2.921875 -1.609375 L 2.921875 -1.265625 L 0.84375 -1.265625 Z M 0.84375 -1.609375 "/></g></g></g><g fill="#545454" fill-opacity="1"><g transform="translate(22.174983, 46.418752)"><g><path d="M 0.5625 -4.1875 L 1 -4.1875 L 2.515625 -0.53125 L 2.546875 -0.53125 L 4.0625 -4.1875 L 4.515625 -4.1875 L 4.515625 0 L 4.15625 0 L 4.15625 -3.375 L 4.109375 -3.375 L 2.703125 0 L 2.359375 0 L 0.953125 -3.375 L 0.921875 -3.375 L 0.921875 0 L 0.5625 0 Z M 0.5625 -4.1875 "/></g></g></g><g fill="#545454" fill-opacity="1"><g transform="translate(27.525001, 46.418752)"><g/></g></g><g fill="#545454" fill-opacity="1"><g transform="translate(29.42919, 46.418752)"><g><path d="M 3.828125 -2.875 L 3.453125 -2.875 C 3.421875 -3.019531 3.367188 -3.148438 3.296875 -3.265625 C 3.222656 -3.390625 3.128906 -3.5 3.015625 -3.59375 C 2.898438 -3.6875 2.769531 -3.753906 2.625 -3.796875 C 2.488281 -3.847656 2.335938 -3.875 2.171875 -3.875 C 1.910156 -3.875 1.671875 -3.804688 1.453125 -3.671875 C 1.234375 -3.535156 1.054688 -3.332031 0.921875 -3.0625 C 0.796875 -2.800781 0.734375 -2.476562 0.734375 -2.09375 C 0.734375 -1.707031 0.796875 -1.378906 0.921875 -1.109375 C 1.054688 -0.847656 1.234375 -0.644531 1.453125 -0.5 C 1.671875 -0.363281 1.910156 -0.296875 2.171875 -0.296875 C 2.335938 -0.296875 2.488281 -0.320312 2.625 -0.375 C 2.769531 -0.425781 2.898438 -0.492188 3.015625 -0.578125 C 3.128906 -0.671875 3.222656 -0.78125 3.296875 -0.90625 C 3.367188 -1.03125 3.421875 -1.164062 3.453125 -1.3125 L 3.828125 -1.3125 C 3.796875 -1.113281 3.734375 -0.929688 3.640625 -0.765625 C 3.546875 -0.597656 3.425781 -0.453125 3.28125 -0.328125 C 3.132812 -0.210938 2.96875 -0.117188 2.78125 -0.046875 C 2.601562 0.0234375 2.398438 0.0625 2.171875 0.0625 C 1.816406 0.0625 1.503906 -0.0234375 1.234375 -0.203125 C 0.960938 -0.378906 0.75 -0.628906 0.59375 -0.953125 C 0.445312 -1.273438 0.375 -1.65625 0.375 -2.09375 C 0.375 -2.53125 0.445312 -2.90625 0.59375 -3.21875 C 0.75 -3.539062 0.960938 -3.789062 1.234375 -3.96875 C 1.503906 -4.144531 1.816406 -4.234375 2.171875 -4.234375 C 2.398438 -4.234375 2.601562 -4.195312 2.78125 -4.125 C 2.96875 -4.0625 3.132812 -3.96875 3.28125 -3.84375 C 3.425781 -3.71875 3.546875 -3.570312 3.640625 -3.40625 C 3.734375 -3.25 3.796875 -3.070312 3.828125 -2.875 Z M 3.828125 -2.875 "/></g></g></g><g fill="#545454" fill-opacity="1"><g transform="translate(33.889171, 46.418752)"><g><path d="M 3.984375 -2.09375 C 3.984375 -1.65625 3.90625 -1.273438 3.75 -0.953125 C 3.59375 -0.628906 3.378906 -0.378906 3.109375 -0.203125 C 2.835938 -0.0234375 2.523438 0.0625 2.171875 0.0625 C 1.816406 0.0625 1.503906 -0.0234375 1.234375 -0.203125 C 0.960938 -0.378906 0.75 -0.628906 0.59375 -0.953125 C 0.445312 -1.273438 0.375 -1.65625 0.375 -2.09375 C 0.375 -2.53125 0.445312 -2.90625 0.59375 -3.21875 C 0.75 -3.539062 0.960938 -3.789062 1.234375 -3.96875 C 1.503906 -4.144531 1.816406 -4.234375 2.171875 -4.234375 C 2.523438 -4.234375 2.835938 -4.144531 3.109375 -3.96875 C 3.378906 -3.789062 3.59375 -3.539062 3.75 -3.21875 C 3.90625 -2.90625 3.984375 -2.53125 3.984375 -2.09375 Z M 3.609375 -2.09375 C 3.609375 -2.46875 3.546875 -2.785156 3.421875 -3.046875 C 3.296875 -3.316406 3.125 -3.519531 2.90625 -3.65625 C 2.695312 -3.800781 2.453125 -3.875 2.171875 -3.875 C 1.898438 -3.875 1.65625 -3.800781 1.4375 -3.65625 C 1.21875 -3.519531 1.046875 -3.316406 0.921875 -3.046875 C 0.796875 -2.785156 0.734375 -2.46875 0.734375 -2.09375 C 0.734375 -1.71875 0.796875 -1.394531 0.921875 -1.125 C 1.046875 -0.863281 1.21875 -0.660156 1.4375 -0.515625 C 1.65625 -0.367188 1.898438 -0.296875 2.171875 -0.296875 C 2.453125 -0.296875 2.695312 -0.367188 2.90625 -0.515625 C 3.125 -0.660156 3.296875 -0.863281 3.421875 -1.125 C 3.546875 -1.394531 3.609375 -1.71875 3.609375 -2.09375 Z M 3.609375 -2.09375 "/></g></g></g><g fill="#545454" fill-opacity="1"><g transform="translate(38.52675, 46.418752)"><g><path d="M 0.5625 -4.1875 L 1 -4.1875 L 2.515625 -0.53125 L 2.546875 -0.53125 L 4.0625 -4.1875 L 4.515625 -4.1875 L 4.515625 0 L 4.15625 0 L 4.15625 -3.375 L 4.109375 -3.375 L 2.703125 0 L 2.359375 0 L 0.953125 -3.375 L 0.921875 -3.375 L 0.921875 0 L 0.5625 0 Z M 0.5625 -4.1875 "/></g></g></g><g fill="#545454" fill-opacity="1"><g transform="translate(43.876768, 46.418752)"><g><path d="M 0.5625 0 L 0.5625 -4.1875 L 1.90625 -4.1875 C 2.195312 -4.1875 2.441406 -4.128906 2.640625 -4.015625 C 2.847656 -3.898438 3 -3.742188 3.09375 -3.546875 C 3.195312 -3.347656 3.25 -3.128906 3.25 -2.890625 C 3.25 -2.648438 3.195312 -2.429688 3.09375 -2.234375 C 3 -2.035156 2.851562 -1.878906 2.65625 -1.765625 C 2.457031 -1.648438 2.207031 -1.59375 1.90625 -1.59375 L 0.84375 -1.59375 L 0.84375 -1.9375 L 1.90625 -1.9375 C 2.125 -1.9375 2.300781 -1.976562 2.4375 -2.0625 C 2.582031 -2.144531 2.691406 -2.257812 2.765625 -2.40625 C 2.835938 -2.550781 2.875 -2.710938 2.875 -2.890625 C 2.875 -3.078125 2.835938 -3.238281 2.765625 -3.375 C 2.691406 -3.519531 2.582031 -3.632812 2.4375 -3.71875 C 2.300781 -3.800781 2.117188 -3.84375 1.890625 -3.84375 L 0.9375 -3.84375 L 0.9375 0 Z M 0.5625 0 "/></g></g></g><g fill="#545454" fill-opacity="1"><g transform="translate(47.759044, 46.418752)"><g><path d="M 3.34375 -4.1875 L 3.71875 -4.1875 L 3.71875 -1.40625 C 3.71875 -1.125 3.648438 -0.867188 3.515625 -0.640625 C 3.390625 -0.421875 3.207031 -0.242188 2.96875 -0.109375 C 2.726562 0.015625 2.453125 0.078125 2.140625 0.078125 C 1.828125 0.078125 1.550781 0.015625 1.3125 -0.109375 C 1.070312 -0.242188 0.882812 -0.421875 0.75 -0.640625 C 0.625 -0.867188 0.5625 -1.125 0.5625 -1.40625 L 0.5625 -4.1875 L 0.9375 -4.1875 L 0.9375 -1.4375 C 0.9375 -1.21875 0.984375 -1.019531 1.078125 -0.84375 C 1.179688 -0.675781 1.320312 -0.539062 1.5 -0.4375 C 1.6875 -0.332031 1.898438 -0.28125 2.140625 -0.28125 C 2.378906 -0.28125 2.585938 -0.332031 2.765625 -0.4375 C 2.953125 -0.539062 3.09375 -0.675781 3.1875 -0.84375 C 3.289062 -1.019531 3.34375 -1.21875 3.34375 -1.4375 Z M 3.34375 -4.1875 "/></g></g></g><g fill="#545454" fill-opacity="1"><g transform="translate(52.325178, 46.418752)"><g><path d="M 0.296875 -3.84375 L 0.296875 -4.1875 L 3.328125 -4.1875 L 3.328125 -3.84375 L 2.015625 -3.84375 L 2.015625 0 L 1.625 0 L 1.625 -3.84375 Z M 0.296875 -3.84375 "/></g></g></g><g fill="#545454" fill-opacity="1"><g transform="translate(56.248279, 46.418752)"><g><path d="M 0.5625 0 L 0.5625 -4.1875 L 2.984375 -4.1875 L 2.984375 -3.84375 L 0.9375 -3.84375 L 0.9375 -2.265625 L 2.859375 -2.265625 L 2.859375 -1.921875 L 0.9375 -1.921875 L 0.9375 -0.34375 L 3.015625 -0.34375 L 3.015625 0 Z M 0.5625 0 "/></g></g></g><g fill="#545454" fill-opacity="1"><g transform="translate(59.946832, 46.418752)"><g><path d="M 0.5625 0 L 0.5625 -4.1875 L 1.90625 -4.1875 C 2.195312 -4.1875 2.441406 -4.128906 2.640625 -4.015625 C 2.847656 -3.910156 3 -3.765625 3.09375 -3.578125 C 3.195312 -3.390625 3.25 -3.175781 3.25 -2.9375 C 3.25 -2.6875 3.195312 -2.46875 3.09375 -2.28125 C 3 -2.09375 2.851562 -1.945312 2.65625 -1.84375 C 2.457031 -1.738281 2.207031 -1.6875 1.90625 -1.6875 L 0.765625 -1.6875 L 0.765625 -2.046875 L 1.90625 -2.046875 C 2.125 -2.046875 2.300781 -2.078125 2.4375 -2.140625 C 2.582031 -2.210938 2.691406 -2.316406 2.765625 -2.453125 C 2.835938 -2.585938 2.875 -2.75 2.875 -2.9375 C 2.875 -3.113281 2.835938 -3.269531 2.765625 -3.40625 C 2.691406 -3.539062 2.582031 -3.644531 2.4375 -3.71875 C 2.289062 -3.800781 2.109375 -3.84375 1.890625 -3.84375 L 0.9375 -3.84375 L 0.9375 0 Z M 2.40625 -1.890625 L 3.421875 0 L 2.984375 0 L 1.96875 -1.890625 Z M 2.40625 -1.890625 "/></g></g></g><g fill="#545454" fill-opacity="1"><g transform="translate(63.861772, 46.418752)"><g/></g></g><g fill="#545454" fill-opacity="1"><g transform="translate(65.765965, 46.418752)"><g><path d="M 2.828125 -3.140625 C 2.804688 -3.367188 2.703125 -3.550781 2.515625 -3.6875 C 2.335938 -3.820312 2.109375 -3.890625 1.828125 -3.890625 C 1.628906 -3.890625 1.457031 -3.859375 1.3125 -3.796875 C 1.164062 -3.734375 1.050781 -3.640625 0.96875 -3.515625 C 0.882812 -3.398438 0.84375 -3.269531 0.84375 -3.125 C 0.84375 -3.007812 0.863281 -2.910156 0.90625 -2.828125 C 0.957031 -2.742188 1.023438 -2.671875 1.109375 -2.609375 C 1.191406 -2.554688 1.28125 -2.507812 1.375 -2.46875 C 1.476562 -2.425781 1.578125 -2.390625 1.671875 -2.359375 L 2.125 -2.234375 C 2.25 -2.191406 2.378906 -2.140625 2.515625 -2.078125 C 2.648438 -2.023438 2.769531 -1.957031 2.875 -1.875 C 2.988281 -1.789062 3.078125 -1.6875 3.140625 -1.5625 C 3.210938 -1.4375 3.25 -1.285156 3.25 -1.109375 C 3.25 -0.890625 3.191406 -0.6875 3.078125 -0.5 C 2.960938 -0.320312 2.796875 -0.179688 2.578125 -0.078125 C 2.359375 0.0234375 2.097656 0.078125 1.796875 0.078125 C 1.515625 0.078125 1.269531 0.03125 1.0625 -0.0625 C 0.851562 -0.164062 0.6875 -0.300781 0.5625 -0.46875 C 0.445312 -0.632812 0.378906 -0.828125 0.359375 -1.046875 L 0.75 -1.046875 C 0.769531 -0.878906 0.828125 -0.738281 0.921875 -0.625 C 1.015625 -0.507812 1.132812 -0.421875 1.28125 -0.359375 C 1.4375 -0.304688 1.609375 -0.28125 1.796875 -0.28125 C 2.003906 -0.28125 2.191406 -0.3125 2.359375 -0.375 C 2.523438 -0.445312 2.65625 -0.546875 2.75 -0.671875 C 2.84375 -0.796875 2.890625 -0.941406 2.890625 -1.109375 C 2.890625 -1.253906 2.847656 -1.375 2.765625 -1.46875 C 2.691406 -1.5625 2.585938 -1.640625 2.453125 -1.703125 C 2.328125 -1.773438 2.179688 -1.835938 2.015625 -1.890625 L 1.515625 -2.03125 C 1.179688 -2.132812 0.921875 -2.269531 0.734375 -2.4375 C 0.554688 -2.613281 0.46875 -2.835938 0.46875 -3.109375 C 0.46875 -3.328125 0.523438 -3.519531 0.640625 -3.6875 C 0.765625 -3.863281 0.929688 -4 1.140625 -4.09375 C 1.347656 -4.1875 1.582031 -4.234375 1.84375 -4.234375 C 2.101562 -4.234375 2.332031 -4.1875 2.53125 -4.09375 C 2.726562 -4 2.882812 -3.867188 3 -3.703125 C 3.125 -3.535156 3.191406 -3.347656 3.203125 -3.140625 Z M 2.828125 -3.140625 "/></g></g></g><g fill="#545454" fill-opacity="1"><g transform="translate(69.6707, 46.418752)"><g><path d="M 3.828125 -2.875 L 3.453125 -2.875 C 3.421875 -3.019531 3.367188 -3.148438 3.296875 -3.265625 C 3.222656 -3.390625 3.128906 -3.5 3.015625 -3.59375 C 2.898438 -3.6875 2.769531 -3.753906 2.625 -3.796875 C 2.488281 -3.847656 2.335938 -3.875 2.171875 -3.875 C 1.910156 -3.875 1.671875 -3.804688 1.453125 -3.671875 C 1.234375 -3.535156 1.054688 -3.332031 0.921875 -3.0625 C 0.796875 -2.800781 0.734375 -2.476562 0.734375 -2.09375 C 0.734375 -1.707031 0.796875 -1.378906 0.921875 -1.109375 C 1.054688 -0.847656 1.234375 -0.644531 1.453125 -0.5 C 1.671875 -0.363281 1.910156 -0.296875 2.171875 -0.296875 C 2.335938 -0.296875 2.488281 -0.320312 2.625 -0.375 C 2.769531 -0.425781 2.898438 -0.492188 3.015625 -0.578125 C 3.128906 -0.671875 3.222656 -0.78125 3.296875 -0.90625 C 3.367188 -1.03125 3.421875 -1.164062 3.453125 -1.3125 L 3.828125 -1.3125 C 3.796875 -1.113281 3.734375 -0.929688 3.640625 -0.765625 C 3.546875 -0.597656 3.425781 -0.453125 3.28125 -0.328125 C 3.132812 -0.210938 2.96875 -0.117188 2.78125 -0.046875 C 2.601562 0.0234375 2.398438 0.0625 2.171875 0.0625 C 1.816406 0.0625 1.503906 -0.0234375 1.234375 -0.203125 C 0.960938 -0.378906 0.75 -0.628906 0.59375 -0.953125 C 0.445312 -1.273438 0.375 -1.65625 0.375 -2.09375 C 0.375 -2.53125 0.445312 -2.90625 0.59375 -3.21875 C 0.75 -3.539062 0.960938 -3.789062 1.234375 -3.96875 C 1.503906 -4.144531 1.816406 -4.234375 2.171875 -4.234375 C 2.398438 -4.234375 2.601562 -4.195312 2.78125 -4.125 C 2.96875 -4.0625 3.132812 -3.96875 3.28125 -3.84375 C 3.425781 -3.71875 3.546875 -3.570312 3.640625 -3.40625 C 3.734375 -3.25 3.796875 -3.070312 3.828125 -2.875 Z M 3.828125 -2.875 "/></g></g></g><g fill="#545454" fill-opacity="1"><g transform="translate(74.130685, 46.418752)"><g><path d="M 0.9375 -4.1875 L 0.9375 0 L 0.5625 0 L 0.5625 -4.1875 Z M 0.9375 -4.1875 "/></g></g></g><g fill="#545454" fill-opacity="1"><g transform="translate(75.910356, 46.418752)"><g><path d="M 0.5625 0 L 0.5625 -4.1875 L 2.984375 -4.1875 L 2.984375 -3.84375 L 0.9375 -3.84375 L 0.9375 -2.265625 L 2.859375 -2.265625 L 2.859375 -1.921875 L 0.9375 -1.921875 L 0.9375 -0.34375 L 3.015625 -0.34375 L 3.015625 0 Z M 0.5625 0 "/></g></g></g><g fill="#545454" fill-opacity="1"><g transform="translate(79.608913, 46.418752)"><g><path d="M 3.8125 -4.1875 L 3.8125 0 L 3.4375 0 L 0.96875 -3.5 L 0.9375 -3.5 L 0.9375 0 L 0.5625 0 L 0.5625 -4.1875 L 0.921875 -4.1875 L 3.40625 -0.671875 L 3.4375 -0.671875 L 3.4375 -4.1875 Z M 3.8125 -4.1875 "/></g></g></g><g fill="#545454" fill-opacity="1"><g transform="translate(84.262825, 46.418752)"><g><path d="M 3.828125 -2.875 L 3.453125 -2.875 C 3.421875 -3.019531 3.367188 -3.148438 3.296875 -3.265625 C 3.222656 -3.390625 3.128906 -3.5 3.015625 -3.59375 C 2.898438 -3.6875 2.769531 -3.753906 2.625 -3.796875 C 2.488281 -3.847656 2.335938 -3.875 2.171875 -3.875 C 1.910156 -3.875 1.671875 -3.804688 1.453125 -3.671875 C 1.234375 -3.535156 1.054688 -3.332031 0.921875 -3.0625 C 0.796875 -2.800781 0.734375 -2.476562 0.734375 -2.09375 C 0.734375 -1.707031 0.796875 -1.378906 0.921875 -1.109375 C 1.054688 -0.847656 1.234375 -0.644531 1.453125 -0.5 C 1.671875 -0.363281 1.910156 -0.296875 2.171875 -0.296875 C 2.335938 -0.296875 2.488281 -0.320312 2.625 -0.375 C 2.769531 -0.425781 2.898438 -0.492188 3.015625 -0.578125 C 3.128906 -0.671875 3.222656 -0.78125 3.296875 -0.90625 C 3.367188 -1.03125 3.421875 -1.164062 3.453125 -1.3125 L 3.828125 -1.3125 C 3.796875 -1.113281 3.734375 -0.929688 3.640625 -0.765625 C 3.546875 -0.597656 3.425781 -0.453125 3.28125 -0.328125 C 3.132812 -0.210938 2.96875 -0.117188 2.78125 -0.046875 C 2.601562 0.0234375 2.398438 0.0625 2.171875 0.0625 C 1.816406 0.0625 1.503906 -0.0234375 1.234375 -0.203125 C 0.960938 -0.378906 0.75 -0.628906 0.59375 -0.953125 C 0.445312 -1.273438 0.375 -1.65625 0.375 -2.09375 C 0.375 -2.53125 0.445312 -2.90625 0.59375 -3.21875 C 0.75 -3.539062 0.960938 -3.789062 1.234375 -3.96875 C 1.503906 -4.144531 1.816406 -4.234375 2.171875 -4.234375 C 2.398438 -4.234375 2.601562 -4.195312 2.78125 -4.125 C 2.96875 -4.0625 3.132812 -3.96875 3.28125 -3.84375 C 3.425781 -3.71875 3.546875 -3.570312 3.640625 -3.40625 C 3.734375 -3.25 3.796875 -3.070312 3.828125 -2.875 Z M 3.828125 -2.875 "/></g></g></g><g fill="#545454" fill-opacity="1"><g transform="translate(88.72281, 46.418752)"><g><path d="M 0.5625 0 L 0.5625 -4.1875 L 2.984375 -4.1875 L 2.984375 -3.84375 L 0.9375 -3.84375 L 0.9375 -2.265625 L 2.859375 -2.265625 L 2.859375 -1.921875 L 0.9375 -1.921875 L 0.9375 -0.34375 L 3.015625 -0.34375 L 3.015625 0 Z M 0.5625 0 "/></g></g></g><g fill="#545454" fill-opacity="1"><g transform="translate(92.421367, 46.418752)"><g/></g></g><g fill="#545454" fill-opacity="1"><g transform="translate(94.32556, 46.418752)"><g><path d="M 0.5625 0 L 0.5625 -4.1875 L 0.9375 -4.1875 L 0.9375 -0.34375 L 2.9375 -0.34375 L 2.9375 0 Z M 0.5625 0 "/></g></g></g><g fill="#545454" fill-opacity="1"><g transform="translate(97.846518, 46.418752)"><g><path d="M 0.5625 0 L 0.15625 0 L 1.6875 -4.1875 L 2.09375 -4.1875 L 3.609375 0 L 3.21875 0 L 1.90625 -3.6875 L 1.875 -3.6875 Z M 0.84375 -1.609375 L 2.921875 -1.609375 L 2.921875 -1.265625 L 0.84375 -1.265625 Z M 0.84375 -1.609375 "/></g></g></g><g fill="#545454" fill-opacity="1"><g transform="translate(101.906396, 46.418752)"><g><path d="M 0.5625 0 L 0.5625 -4.1875 L 1.96875 -4.1875 C 2.238281 -4.1875 2.460938 -4.132812 2.640625 -4.03125 C 2.828125 -3.9375 2.960938 -3.804688 3.046875 -3.640625 C 3.140625 -3.484375 3.1875 -3.300781 3.1875 -3.09375 C 3.1875 -2.914062 3.15625 -2.765625 3.09375 -2.640625 C 3.039062 -2.515625 2.960938 -2.410156 2.859375 -2.328125 C 2.765625 -2.253906 2.65625 -2.203125 2.53125 -2.171875 L 2.53125 -2.140625 C 2.664062 -2.128906 2.796875 -2.082031 2.921875 -2 C 3.046875 -1.914062 3.148438 -1.796875 3.234375 -1.640625 C 3.316406 -1.492188 3.359375 -1.3125 3.359375 -1.09375 C 3.359375 -0.882812 3.3125 -0.695312 3.21875 -0.53125 C 3.125 -0.363281 2.976562 -0.234375 2.78125 -0.140625 C 2.59375 -0.046875 2.347656 0 2.046875 0 Z M 0.9375 -0.34375 L 2.046875 -0.34375 C 2.367188 -0.34375 2.601562 -0.410156 2.75 -0.546875 C 2.90625 -0.691406 2.984375 -0.875 2.984375 -1.09375 C 2.984375 -1.25 2.945312 -1.390625 2.875 -1.515625 C 2.800781 -1.648438 2.691406 -1.753906 2.546875 -1.828125 C 2.410156 -1.910156 2.25 -1.953125 2.0625 -1.953125 L 0.9375 -1.953125 Z M 0.9375 -2.296875 L 2 -2.296875 C 2.164062 -2.296875 2.3125 -2.328125 2.4375 -2.390625 C 2.5625 -2.460938 2.65625 -2.554688 2.71875 -2.671875 C 2.789062 -2.796875 2.828125 -2.9375 2.828125 -3.09375 C 2.828125 -3.3125 2.753906 -3.488281 2.609375 -3.625 C 2.460938 -3.769531 2.25 -3.84375 1.96875 -3.84375 L 0.9375 -3.84375 Z M 0.9375 -2.296875 "/></g></g></g><g fill="#545454" fill-opacity="1"><g transform="translate(105.915237, 46.418752)"><g><path d="M 1.84375 -4.375 L 0.484375 0.625 L 0.15625 0.625 L 1.5 -4.375 Z M 1.84375 -4.375 "/></g></g></g><g fill="#545454" fill-opacity="1"><g transform="translate(108.188916, 46.418752)"><g><path d="M 3.125 -1.5 L 0.625 -0.125 L 0.625 -0.53125 L 2.671875 -1.625 L 2.65625 -1.59375 L 2.65625 -1.671875 L 2.671875 -1.640625 L 0.625 -2.734375 L 0.625 -3.140625 L 3.125 -1.765625 Z M 3.125 -1.5 "/></g></g></g></svg>